<?xml version="1.0" encoding="UTF-8" standalone="no"?>
<!DOCTYPE svg PUBLIC "-//W3C//DTD SVG 1.1//EN" "http://www.w3.org/Graphics/SVG/1.1/DTD/svg11.dtd">
<svg width="100%" height="100%" viewBox="0 0 419 537" version="1.1" xmlns="http://www.w3.org/2000/svg" xmlns:xlink="http://www.w3.org/1999/xlink" xml:space="preserve" xmlns:serif="http://www.serif.com/" style="fill-rule:evenodd;clip-rule:evenodd;stroke-linecap:round;stroke-linejoin:round;stroke-miterlimit:1.5;">
    <g transform="matrix(0.854852,0,0,0.854852,-2236.9,-867.921)">
        <ellipse cx="2842.94" cy="1515.21" rx="52.244" ry="29.196" style="fill:url(#_Linear1);"/>
    </g>
    <g transform="matrix(0.729303,0,0,0.729303,-1707.26,-601.027)">
        <path d="M2808.63,919.22C2810.56,990.955 2810.83,1325.93 2810.31,1329.19C2806.36,1353.89 2771.64,1368.22 2747.12,1379.19C2719.77,1391.43 2680.73,1401.73 2646.21,1402.6C2604.61,1403.65 2534.8,1397.21 2497.53,1385.51C2468.32,1376.33 2422.6,1332.37 2422.6,1332.37C2422.6,1332.37 2423,1036.51 2423.41,924.701C2423.66,854.659 2550.45,829.564 2612.31,832.672C2689.94,836.574 2720.48,844.81 2753.2,859.235C2778.11,870.216 2808.05,897.638 2808.63,919.22Z" style="fill:rgb(225,225,225);stroke:url(#_Linear2);stroke-width:16.62px;"/>
    </g>
    <g transform="matrix(-0.35321,-0.46621,0.539666,-0.408862,265.74,1564.6)">
        <path d="M1644.75,1062.35C1646.67,1057.54 1647.76,1048.02 1650.51,1041.28C1653.99,1032.78 1659.34,1020.03 1665.59,1011.35C1671.72,1002.82 1682.33,994.611 1687.98,989.178C1691.72,985.589 1697.74,983.266 1699.51,978.757C1701.29,974.249 1700.62,965.972 1698.63,962.128C1696.66,958.337 1691.27,956.733 1687.54,955.698C1683.91,954.691 1679.59,954.207 1676.23,955.92C1670.65,958.766 1660.64,966.223 1654.06,972.771C1646.63,980.162 1637.89,990.215 1631.67,1000.26C1625.24,1010.65 1618.88,1026.24 1615.48,1035.08C1613.25,1040.88 1611.97,1048.9 1611.27,1053.26C1610.84,1055.88 1610.31,1058.76 1611.27,1061.24C1612.41,1064.19 1615,1068.7 1618.14,1070.99C1621.28,1073.29 1626.64,1075.13 1630.11,1074.99C1633.49,1074.84 1636.54,1072.21 1638.98,1070.11C1641.42,1068 1643.55,1065.34 1644.75,1062.35Z" style="fill:rgb(236,236,236);stroke:rgb(225,225,225);stroke-opacity:0;stroke-width:9.85px;"/>
    </g>
    <g transform="matrix(0.857627,0,0,0.74027,-2075.95,-632.939)">
        <ellipse cx="2654.69" cy="936.406" rx="137.639" ry="53.683" style="fill:rgb(236,236,236);"/>
    </g>
    <g transform="matrix(0.854852,0,0,0.854852,-2360.79,-795.172)">
        <ellipse cx="2842.94" cy="1515.21" rx="52.244" ry="29.196" style="fill:url(#_Linear3);"/>
    </g>
    <g transform="matrix(0.854852,0,0,0.715956,-2013.3,-629.981)">
        <rect x="2400.18" y="1372.42" width="71.685" height="206.014" style="fill:url(#_Linear4);"/>
    </g>
    <g transform="matrix(0.854852,0,0,0.854852,-2065.29,-819.13)">
        <ellipse cx="2842.94" cy="1515.21" rx="52.244" ry="29.196" style="fill:url(#_Linear5);"/>
    </g>
    <g transform="matrix(0.854852,0,0,0.715956,-1717.8,-653.939)">
        <rect x="2400.18" y="1372.42" width="71.685" height="206.014" style="fill:url(#_Linear6);"/>
    </g>
    <g transform="matrix(0.729303,0,0,0.729303,-1707.26,-601.027)">
        <path d="M2435.35,1191.9C2435.35,1191.9 2360.86,1221.14 2347.95,1229.19C2343.76,1231.79 2353.85,1237.29 2357.86,1240.16C2370.3,1249.08 2396.79,1283.71 2422.6,1282.73C2449.79,1281.69 2521.03,1233.92 2521.03,1233.92C2521.03,1233.92 2489.1,1224.54 2474.83,1217.54C2460.74,1210.63 2435.35,1191.9 2435.35,1191.9Z" style="fill:url(#_Linear7);stroke:rgb(180,180,180);stroke-width:12px;"/>
    </g>
    <g transform="matrix(0.729303,0,0,0.729303,-1710.88,-602.287)">
        <path d="M2810.24,1166.58C2810.24,1166.58 2808.51,1189.36 2802.3,1198.33C2795.86,1207.64 2771.55,1222.46 2771.55,1222.46C2771.55,1222.46 2858.57,1246.82 2881.66,1240.98C2901.26,1236.02 2922,1199.82 2910.1,1187.41C2898.19,1175.02 2810.24,1166.58 2810.24,1166.58Z" style="fill:url(#_Linear8);stroke:rgb(180,180,180);stroke-width:12px;"/>
    </g>
    <g transform="matrix(0.729303,0,0,0.729303,-1707.26,-601.027)">
        <path d="M2766.59,1220.74L2766.59,1355.83C2766.59,1355.83 2856.93,1399.02 2871.6,1381.2C2891.12,1357.48 2898.66,1348.99 2902.49,1329.19C2908.61,1297.64 2907.58,1260.75 2908.26,1191.9C2906.37,1201.08 2902.58,1219.44 2895.35,1227.48C2888.13,1235.53 2875.92,1240.34 2864.93,1240.16C2845.84,1239.85 2797.2,1228.87 2780.81,1225.63C2775.9,1224.66 2769.69,1222.04 2766.59,1220.74Z" style="fill:rgb(195,195,195);stroke:rgb(180,180,180);stroke-width:12px;"/>
    </g>
    <g transform="matrix(0.729303,0,0,0.729303,-1707.26,-601.027)">
        <path d="M2347.95,1233.92C2347.95,1233.92 2396.52,1271.54 2410.77,1279.09C2417.45,1282.63 2426.32,1281.73 2433.45,1279.22C2448.44,1273.95 2486.7,1255.73 2500.71,1247.48C2508.89,1242.66 2524.55,1228.69 2524.55,1237.33C2524.55,1260.77 2523.86,1386.68 2523.86,1386.68C2523.86,1386.68 2451.26,1426.53 2422.6,1424.38C2393.94,1422.23 2351.91,1373.79 2351.91,1373.79L2347.95,1233.92Z" style="fill:rgb(195,195,195);stroke:rgb(180,180,180);stroke-width:12px;"/>
    </g>
    <g transform="matrix(0.548607,0,0,0.548607,-981.692,-221.315)">
        <g transform="matrix(1.42314,0,0,0.729341,-883.081,241.704)">
            <g transform="matrix(50,0,0,50,2083.24,893.019)">
                <path d="M0.074,-0C0.074,-0.239 0.074,-0.477 0.074,-0.716L0.208,-0.675C0.298,-0.496 0.391,-0.319 0.486,-0.143C0.486,-0.143 0.488,-0.376 0.489,-0.493C0.489,-0.532 0.492,-0.649 0.49,-0.61L0.62,-0.589C0.618,-0.356 0.616,-0.124 0.614,0.109C0.614,0.109 0.475,0.088 0.475,0.088C0.381,-0.083 0.29,-0.256 0.201,-0.43C0.201,-0.43 0.2,0.032 0.2,0.032L0.074,-0Z" style="fill:rgb(109,109,109);fill-rule:nonzero;"/>
            </g>
            <g transform="matrix(50,0,0,50,2119.35,893.019)">
                <path d="M0.039,0.125C0.041,-0.107 0.044,-0.339 0.046,-0.572C0.046,-0.572 0.26,-0.558 0.26,-0.558C0.301,-0.399 0.342,-0.239 0.384,-0.08C0.429,-0.24 0.474,-0.399 0.519,-0.559C0.519,-0.559 0.738,-0.573 0.738,-0.573C0.735,-0.338 0.732,-0.104 0.729,0.13L0.593,0.138C0.595,-0.046 0.597,-0.23 0.6,-0.413C0.55,-0.228 0.5,-0.043 0.45,0.142L0.311,0.14C0.266,-0.044 0.221,-0.229 0.177,-0.413C0.175,-0.231 0.173,-0.048 0.171,0.135L0.039,0.125Z" style="fill:rgb(109,109,109);fill-rule:nonzero;"/>
            </g>
            <g transform="matrix(50,0,0,50,2161,893.019)">
                <path d="M0.043,0.117C0.046,-0.118 0.049,-0.353 0.051,-0.588C0.051,-0.588 0.364,-0.637 0.364,-0.637C0.419,-0.648 0.48,-0.661 0.537,-0.654C0.571,-0.649 0.602,-0.632 0.623,-0.605C0.647,-0.575 0.656,-0.538 0.656,-0.5C0.656,-0.447 0.638,-0.397 0.606,-0.356C0.568,-0.308 0.514,-0.277 0.457,-0.258C0.486,-0.248 0.514,-0.234 0.538,-0.215C0.571,-0.188 0.599,-0.15 0.624,-0.118C0.624,-0.118 0.717,0 0.717,-0C0.717,0 0.533,0.041 0.533,0.041C0.533,0.041 0.424,-0.092 0.424,-0.092C0.413,-0.107 0.367,-0.165 0.346,-0.183C0.333,-0.194 0.318,-0.202 0.301,-0.205C0.277,-0.209 0.248,-0.204 0.226,-0.201L0.195,-0.196C0.195,-0.196 0.192,0.1 0.192,0.1C0.192,0.1 0.043,0.117 0.043,0.117ZM0.196,-0.309L0.307,-0.327C0.343,-0.333 0.405,-0.341 0.442,-0.36C0.459,-0.369 0.474,-0.382 0.484,-0.399C0.495,-0.416 0.5,-0.436 0.5,-0.456C0.5,-0.475 0.495,-0.496 0.48,-0.51C0.465,-0.523 0.444,-0.527 0.424,-0.526C0.387,-0.524 0.351,-0.515 0.315,-0.508L0.198,-0.489C0.198,-0.489 0.196,-0.309 0.196,-0.309Z" style="fill:rgb(109,109,109);fill-rule:nonzero;"/>
            </g>
        </g>
    </g>
    <g transform="matrix(0.498502,0,0,0.498502,-1078.66,-285.749)">
        <path d="M2590.2,1080.31C2590.2,1080.31 2691.64,971.167 2685.13,1031.87C2683.2,1049.95 2659.95,1074.99 2659.95,1074.99" style="fill:rgb(42,48,72);fill-opacity:0;stroke:rgb(166,181,251);stroke-width:8.36px;"/>
    </g>
    <g transform="matrix(0.498502,0,0,-0.51951,-1080.16,837.399)">
        <path d="M2590.2,1080.31C2590.2,1080.31 2691.64,971.167 2685.13,1031.87C2683.2,1049.95 2659.95,1074.99 2659.95,1074.99" style="fill:rgb(42,48,72);fill-opacity:0;stroke:rgb(166,181,251);stroke-width:8.18px;"/>
    </g>
    <g transform="matrix(-0.51805,-1.24492e-16,1.29738e-16,-0.51951,1538.55,837.399)">
        <path d="M2590.2,1080.31C2590.2,1080.31 2691.64,971.167 2685.13,1031.87C2683.2,1049.95 2659.95,1074.99 2659.95,1074.99" style="fill:rgb(42,48,72);fill-opacity:0;stroke:rgb(166,181,251);stroke-width:8.03px;"/>
    </g>
    <g transform="matrix(-0.51805,2.81278e-18,-2.93132e-18,0.563818,1538.55,-356.433)">
        <path d="M2590.2,1080.31C2590.2,1080.31 2691.64,971.167 2685.13,1031.87C2683.2,1049.95 2659.95,1074.99 2659.95,1074.99" style="fill:rgb(42,48,72);fill-opacity:0;stroke:rgb(166,181,251);stroke-width:7.7px;"/>
    </g>
    <g transform="matrix(0.171766,0,0,0.171766,-175.114,57.7383)">
        <circle cx="2348.14" cy="1046.34" r="7.749" style="fill:rgb(136,159,250);fill-opacity:0;stroke:rgb(166,181,251);stroke-width:46.07px;"/>
    </g>
    <g transform="matrix(0.171766,0,0,0.171766,-175.114,114.298)">
        <circle cx="2348.14" cy="1046.34" r="7.749" style="fill:rgb(176,188,248);fill-opacity:0;stroke:rgb(166,181,251);stroke-width:46.07px;"/>
    </g>
    <g transform="matrix(1,0,0,1,0,-16.4613)">
        <path d="M129.974,151.238L180.533,151.238" style="fill:none;stroke:rgb(136,140,167);stroke-width:5.76px;"/>
    </g>
    <g transform="matrix(1,0,0,1,89.6535,-16.4613)">
        <path d="M129.974,151.238L180.533,151.238" style="fill:none;stroke:rgb(136,140,167);stroke-width:5.76px;"/>
    </g>
    <g transform="matrix(0.676477,0,0,1.7325,88.0676,-87.7979)">
        <path d="M129.974,151.238L180.533,151.238" style="fill:none;stroke:rgb(136,140,167);stroke-width:4.38px;"/>
    </g>
    <g transform="matrix(1,0,0,1,148.553,7.72224)">
        <path d="M36.693,155.353C36.693,155.353 21.261,157.754 25.033,177.645" style="fill:none;stroke:rgb(136,140,167);stroke-width:5.76px;"/>
    </g>
    <g transform="matrix(1,0,0,1,-3.69129,-17.1472)">
        <circle cx="150.501" cy="156.676" r="4.752" style="fill:rgb(136,140,167);stroke:rgb(136,140,167);stroke-width:5.76px;"/>
    </g>
    <g transform="matrix(1,0,0,1,86.8746,-17.1472)">
        <circle cx="150.501" cy="156.676" r="4.752" style="fill:rgb(136,140,167);stroke:rgb(136,140,167);stroke-width:5.76px;"/>
    </g>
    <defs>
        <linearGradient id="_Linear1" x1="0" y1="0" x2="1" y2="0" gradientUnits="userSpaceOnUse" gradientTransform="matrix(116.842,-159.968,159.968,116.842,2625.33,1381.07)"><stop offset="0" style="stop-color:rgb(42,48,72);stop-opacity:1"/><stop offset="1" style="stop-color:rgb(0,97,217);stop-opacity:1"/></linearGradient>
        <linearGradient id="_Linear2" x1="0" y1="0" x2="1" y2="0" gradientUnits="userSpaceOnUse" gradientTransform="matrix(325.434,-374.784,374.784,325.434,2242.15,987.008)"><stop offset="0" style="stop-color:rgb(116,124,177);stop-opacity:1"/><stop offset="1" style="stop-color:rgb(179,211,202);stop-opacity:1"/></linearGradient>
        <linearGradient id="_Linear3" x1="0" y1="0" x2="1" y2="0" gradientUnits="userSpaceOnUse" gradientTransform="matrix(116.842,-159.968,159.968,116.842,2625.33,1381.07)"><stop offset="0" style="stop-color:rgb(42,48,72);stop-opacity:1"/><stop offset="1" style="stop-color:rgb(0,97,217);stop-opacity:1"/></linearGradient>
        <linearGradient id="_Linear4" x1="0" y1="0" x2="1" y2="0" gradientUnits="userSpaceOnUse" gradientTransform="matrix(116.842,-191.001,159.968,139.509,2218.84,1418.27)"><stop offset="0" style="stop-color:rgb(42,48,72);stop-opacity:1"/><stop offset="1" style="stop-color:rgb(0,97,217);stop-opacity:1"/></linearGradient>
        <linearGradient id="_Linear5" x1="0" y1="0" x2="1" y2="0" gradientUnits="userSpaceOnUse" gradientTransform="matrix(116.842,-159.968,159.968,116.842,2625.33,1381.07)"><stop offset="0" style="stop-color:rgb(42,48,72);stop-opacity:1"/><stop offset="1" style="stop-color:rgb(0,97,217);stop-opacity:1"/></linearGradient>
        <linearGradient id="_Linear6" x1="0" y1="0" x2="1" y2="0" gradientUnits="userSpaceOnUse" gradientTransform="matrix(116.842,-191.001,159.968,139.509,2218.84,1418.27)"><stop offset="0" style="stop-color:rgb(42,48,72);stop-opacity:1"/><stop offset="1" style="stop-color:rgb(0,97,217);stop-opacity:1"/></linearGradient>
        <linearGradient id="_Linear7" x1="0" y1="0" x2="1" y2="0" gradientUnits="userSpaceOnUse" gradientTransform="matrix(196.775,-218.483,218.483,196.775,2178.24,1251.51)"><stop offset="0" style="stop-color:rgb(136,150,197);stop-opacity:1"/><stop offset="1" style="stop-color:rgb(80,102,163);stop-opacity:1"/></linearGradient>
        <linearGradient id="_Linear8" x1="0" y1="0" x2="1" y2="0" gradientUnits="userSpaceOnUse" gradientTransform="matrix(-109.495,110.505,-110.505,-109.495,2846.39,1106.47)"><stop offset="0" style="stop-color:rgb(136,150,197);stop-opacity:1"/><stop offset="1" style="stop-color:rgb(80,102,163);stop-opacity:1"/></linearGradient>
    </defs>
</svg>
